<?xml version="1.0" encoding="utf-8"?>
<!-- Designed by Vexels.com - 2016 All Rights Reserved - https://vexels.com/terms-and-conditions/  -->

<svg version="1.1" id="Layer_1" xmlns="http://www.w3.org/2000/svg" xmlns:xlink="http://www.w3.org/1999/xlink" x="0px" y="0px"
	 width="1200px" height="1200px" viewBox="0 0 1200 1200" enable-background="new 0 0 1200 1200" xml:space="preserve">
<g>
	<g>
		<path fill="#E5202F" d="M826.731,654.004c-3.997,6.433-29.524,44.379-73.341,40.08c-47.85-4.691-82.032-31.617-80.753-74.331
			c1.279-42.736,28.628-74.773,65.372-82.884c0,0-12.391-36.322-23.073-52.562c-10.68-16.235-20.083-52.12-26.06-78.607
			c-5.984-26.488-8.972-53.82-8.972-53.82s-35.461,14.512-39.306,27.332c-3.845,12.816-22.214,62.364-28.203,71.345
			c17.942,12.401,26.071,33.327,35.461,66.654c9.405,33.318,15.389,57.248,15.389,57.248l-8.128,3.839
			c0,0,24.366,82.04,22.225,139.289c0,6.829,8.97,18.369,11.535,23.922c2.562,5.562,34.601,58.539,35.889,79.474
			c1.283,20.926,8.12,68.778,19.654,88.861c11.532,18.368,9.392,46.571,7.265,64.94c-2.14,18.368-0.857,39.308,2.989,45.709
			c3.843,6.405,5.984,15.811,5.122,22.225c-0.857,6.406,1.71,17.945,6.83,31.18c5.086,13.1,21.828,43.355-13.799,73.786
			c19.44-0.243,33.349-2.625,51.849-17.354c25.09-19.966,21.427-77.11,21.427-77.11L826.731,654.004z"/>
		<path fill="#E5202F" d="M671.358,59.637c2.558,2.567,34.608,20.502,17.94,62.377c-4.27,9.396-6.832,14.521-6.832,14.521
			s8.541,2.566,2.562,15.378c-5.982,12.824-6.404,12.824-11.961,16.672c-5.555,3.834-10.684,10.249-13.242,14.95
			c-2.565,4.696-4.701,11.954-10.256,15.373c-5.557,3.428-16.668,7.696-6.41,15.811c10.256,8.129,35.465,26.488,51.693,37.166
			c16.246,10.687,44.44,32.05,43.156,87.603c-1.71,35.023,5.553,79.027,16.237,102.525c10.678,23.502,29.046,68.359,26.915,93.986
			c16.752,5.458,38.436,22.284,45.694,38.497l0.661-419.803c0-9.676,1.284-56.396-14.721-76.154
			c-21.549-26.628-62.925-24.815-62.925-24.815s-40.186,0-89.622,0C664.979,56.023,669.283,57.562,671.358,59.637z"/>
	</g>
	<g>
		<g>
			<g>
				<path fill="#05509D" d="M542.063,972.337v30.873h8.219c0,0,14.162-0.569,14.162-15.008
					C564.444,973.753,551.698,972.337,542.063,972.337z"/>
			</g>
			<g>
				<polygon fill="#05509D" points="634.133,1035.22 649.996,1035.22 642.355,977.998 				"/>
			</g>
			<g>
				<path fill="#05509D" d="M549.284,1027.434c-5.377,0-7.222,0.419-7.222,0.419v38.258h10.77c0,0,11.611-1.705,11.611-17.859
					C564.444,1032.107,554.671,1027.434,549.284,1027.434z"/>
			</g>
			<g>
				<g>
					<path fill="#05509D" d="M716.041,1105.942c7.265-29.907,10.26-56.82,3.42-66.22c-6.839-9.396-10.26-14.95-5.977-20.083
						c4.268-5.115,5.977-19.65-2.997-30.76c-8.972-11.101-30.336-31.612-25.209-40.156c5.133-8.558,9.405-32.483-12.809-43.152
						c-22.225-10.677-60.248-43.589-96.561-80.755c-36.318-37.166-93.564-113.635-105.953-150.382
						c-14.956,0.853-20.078,0.424-20.078,0.424s-10.258-29.479-19.23-41.88c-8.972-12.373-38.023-49.548-30.763-102.534
						c0,0,2.562-37.599,28.196-61.096c-0.85-8.106-0.85-12.369-0.85-12.369s-17.09,0.843-22.642,0.843
						c-5.553,0-23.076-2.152-27.77-26.917c0,0-1.286-17.087,11.959-47.433c13.247-30.327,32.472-64.506,37.168-82.451
						c4.703-17.94,24.359-55.958,39.739-73.05c15.378-17.097,35.037-21.368,49.988-21.788c14.951-0.437,49.986-0.861,58.103-16.239
						c8.113-15.374,5.977-38.452,5.977-38.452s-9.401-6.838-9.401-20.082c0-13.244,5.127-17.516,15.811-14.106
						c0,0-5.982-26.908,4.274-43.152c8.399-13.298,13.075-17.985,18.479-20.43c-63.597,0-127.182,0-134.794,0
						c-15.732,0-58.692-1.204-80.464,21.179c-21.784,22.374-19.966,58.074-19.966,58.074s-1.229,881.521-1.229,907.536
						c0,26.024,1.213,64.136,23.601,87.129c22.385,22.988,67.156,19.956,67.156,19.956s232.943,0,261.378,0
						c1.994,0,3.92,0.009,5.797,0.023C724.26,1142.526,710.463,1128.907,716.041,1105.942z M503.248,1086.5h-29.181l-25.492-73.655
						v72.532h-28.899l0.848-135.423h31.449l22.66,67.416v-66.852h28.615V1086.5z M592.493,1036.934c0,19.262,0,28.324,0,28.324
						s0.286,20.398-22.102,20.398h-56.946l-0.28-135.139h54.675c0,0,24.939,0.28,24.939,31.735
						c0,31.446-15.588,32.001-15.588,32.001S592.493,1017.668,592.493,1036.934z M657.931,1085.656l-6.23-29.461h-19.269
						l-5.95,29.461l-30.023,0.275l26.348-135.414h39.088l28.051,135.139H657.931z"/>
				</g>
			</g>
			<g>
				<path fill="#05509D" d="M651.53,51.946c-5.986-3.42-31.617-1.714-38.885,0.415c-1.312,0.388-2.54,0.821-3.733,1.362
					c15.624,0,31.236,0,46.03,0C653.819,53.177,652.678,52.6,651.53,51.946z"/>
			</g>
			<g>
				<path fill="#05509D" d="M730.393,1147.619c1.851,1.538,3.036,2.332,2.738,2.332c-1.283,0,4.705,0.433,13.249-1.281
					c0.399-0.329,0.756-0.659,1.141-0.992C742.281,1147.745,736.643,1147.664,730.393,1147.619z"/>
			</g>
		</g>
	</g>
</g>
</svg>
